<svg width="30" height="20" viewBox="0 0 30 20" xmlns="http://www.w3.org/2000/svg"><title>mc bg</title><g transform="translate(1 1)" fill="none" fill-rule="evenodd"><rect fill="#04588F" width="28" height="18" rx="2"/><path d="M16.156 8.995c0 3.505-2.927 6.347-6.537 6.347S3.083 12.5 3.083 8.995c0-3.505 2.926-6.347 6.536-6.347 3.61 0 6.537 2.842 6.537 6.347" fill="#D9222A"/><path d="M18.395 2.648a6.623 6.623 0 0 0-4.388 1.643 6.537 6.537 0 0 0-.66.672h1.32c.181.213.348.437.499.672h-2.317c-.14.216-.265.44-.377.672h3.07c.105.218.198.442.277.672h-3.624c-.075.219-.139.443-.19.672h4.004a6.201 6.201 0 0 1-.19 3.36h-3.624c.08.23.172.454.277.672h3.07a6.308 6.308 0 0 1-.376.672h-2.317c.151.235.318.46.498.672h1.32c-.202.24-.423.464-.66.672a6.623 6.623 0 0 0 4.388 1.643c3.61 0 6.537-2.842 6.537-6.347 0-3.505-2.927-6.347-6.537-6.347" fill="#EE9F2D"/><path d="M8.093 9.69a1.218 1.218 0 0 0-.158-.01c-.403 0-.606.133-.606.398 0 .163.1.266.254.266.29 0 .498-.267.51-.654zm.516 1.166h-.588l.014-.271c-.18.215-.419.316-.744.316-.385 0-.648-.291-.648-.715 0-.637.458-1.009 1.246-1.009.08 0 .183.007.289.02a.626.626 0 0 0 .027-.17c0-.173-.123-.238-.455-.238a2.416 2.416 0 0 0-.75.118l.098-.589c.353-.1.586-.138.849-.138.61 0 .932.265.931.767.002.135-.021.301-.057.52-.062.378-.194 1.191-.212 1.39zM6.346 10.856h-.71l.406-2.474-.907 2.474H4.65l-.06-2.46-.427 2.46H3.5l.555-3.219h1.02l.062 1.802.622-1.802h1.135l-.548 3.22M19.272 9.69a1.212 1.212 0 0 0-.158-.01c-.402 0-.606.133-.606.398 0 .163.1.266.255.266.289 0 .497-.267.51-.654zm.517 1.166H19.2l.013-.271c-.18.215-.419.316-.744.316-.384 0-.648-.291-.648-.715 0-.637.459-1.009 1.246-1.009.08 0 .183.007.289.02a.626.626 0 0 0 .028-.17c0-.173-.124-.238-.455-.238a2.42 2.42 0 0 0-.752.118l.099-.589c.354-.1.587-.138.849-.138.61 0 .932.265.932.767.001.135-.022.301-.058.52-.061.378-.194 1.191-.211 1.39zM11.763 10.817c-.194.059-.346.084-.51.084-.363 0-.56-.202-.56-.575-.006-.115.052-.42.097-.698.04-.244.307-1.786.307-1.786h.706l-.083.396h.426l-.096.63h-.427c-.082.497-.199 1.118-.2 1.2 0 .135.074.194.243.194a.59.59 0 0 0 .19-.025l-.093.58M13.926 10.795a2.474 2.474 0 0 1-.724.106c-.79 0-1.201-.4-1.201-1.167 0-.895.523-1.554 1.234-1.554.582 0 .953.369.953.947 0 .192-.025.38-.087.644h-1.405c-.047.38.203.538.614.538.252 0 .48-.05.733-.165l-.117.651zm-.397-1.552c.004-.054.075-.467-.328-.467-.225 0-.385.166-.45.467h.778zM9.035 9.066c0 .331.165.56.54.73.288.132.332.17.332.29 0 .163-.127.237-.408.237-.211 0-.408-.032-.635-.104l-.098.605c.161.034.305.066.739.077.748 0 1.094-.276 1.094-.875 0-.36-.145-.57-.5-.73-.298-.132-.332-.161-.332-.284 0-.141.118-.213.348-.213.139 0 .33.014.51.039l.1-.607a4.951 4.951 0 0 0-.624-.051c-.794 0-1.069.402-1.066.886M17.377 8.249c.197 0 .38.05.634.174l.116-.7c-.104-.039-.47-.271-.78-.271-.475 0-.876.228-1.159.606-.411-.133-.58.135-.788.402l-.185.041c.014-.087.027-.175.023-.263h-.652c-.089.81-.247 1.631-.37 2.443l-.032.175h.71c.118-.747.183-1.226.222-1.55l.268-.144c.04-.144.165-.193.415-.187-.032.17-.05.35-.05.537 0 .856.476 1.39 1.24 1.39.197 0 .366-.026.627-.095l.125-.733c-.235.112-.428.165-.603.165-.413 0-.662-.296-.662-.784 0-.71.371-1.206.901-1.206" fill="#000"/><path d="M6.55 10.665h-.71l.407-2.474-.908 2.474h-.484l-.06-2.46-.427 2.46h-.664l.555-3.219h1.02l.029 1.993.688-1.993H7.1l-.55 3.22" fill="#FFF"/><path d="M23.385 7.637l-.157.93c-.194-.248-.403-.427-.678-.427-.358 0-.684.263-.897.651-.298-.06-.605-.161-.605-.161v.002c.024-.217.034-.349.031-.394h-.651c-.09.81-.247 1.631-.37 2.443l-.033.175h.71c.096-.604.17-1.106.223-1.504.243-.213.364-.398.61-.386a2.187 2.187 0 0 0-.173.85c0 .654.341 1.085.857 1.085.26 0 .46-.087.654-.288l-.033.243h.672l.54-3.219h-.7zm-.887 2.614c-.242 0-.364-.173-.364-.516 0-.514.228-.88.55-.88.244 0 .376.181.376.514 0 .519-.232.882-.562.882z" fill="#000"/><path d="M8.297 9.499a1.216 1.216 0 0 0-.158-.01c-.402 0-.606.133-.606.398 0 .163.1.267.254.267.29 0 .498-.268.51-.655zm.516 1.166h-.587l.013-.27c-.18.213-.419.316-.744.316-.385 0-.648-.292-.648-.716 0-.637.458-1.009 1.246-1.009.08 0 .183.007.289.02a.626.626 0 0 0 .028-.17c0-.173-.124-.237-.455-.237a2.434 2.434 0 0 0-.752.117l.099-.588c.353-.101.587-.14.849-.14.61 0 .932.267.932.768 0 .135-.022.301-.058.52-.061.378-.194 1.191-.212 1.39zM18.332 7.533l-.117.699c-.253-.124-.437-.174-.634-.174-.53 0-.9.497-.9 1.206 0 .488.249.784.661.784.175 0 .368-.053.603-.165l-.125.733c-.261.07-.43.095-.627.095-.764 0-1.24-.534-1.24-1.39 0-1.151.658-1.955 1.598-1.955.31 0 .676.127.78.167M19.476 9.499a1.214 1.214 0 0 0-.158-.01c-.402 0-.605.133-.605.398 0 .163.099.267.254.267.289 0 .497-.268.51-.655zm.517 1.166h-.588l.013-.27c-.18.213-.419.316-.743.316-.385 0-.649-.292-.649-.716 0-.637.459-1.009 1.246-1.009.08 0 .184.007.29.02a.632.632 0 0 0 .027-.17c0-.173-.123-.237-.455-.237a2.435 2.435 0 0 0-.751.117l.098-.588c.354-.101.587-.14.85-.14.609 0 .932.267.931.768.001.135-.022.301-.058.52-.06.378-.193 1.191-.211 1.39zM11.967 10.626c-.194.059-.346.085-.51.085-.362 0-.56-.203-.56-.575-.005-.116.052-.42.097-.698.04-.245.308-1.787.308-1.787h.705l-.082.396h.362l-.097.63h-.363c-.082.498-.199 1.117-.2 1.2 0 .135.074.194.243.194a.59.59 0 0 0 .191-.025l-.094.58M14.13 10.605a2.48 2.48 0 0 1-.724.106c-.79-.001-1.201-.401-1.201-1.168 0-.896.523-1.554 1.234-1.554.582 0 .953.369.953.947 0 .192-.025.38-.087.644h-1.404c-.048.38.203.538.613.538.252 0 .48-.05.733-.165l-.117.652zm-.397-1.553c.005-.054.075-.467-.328-.467-.224 0-.385.167-.45.467h.778zM9.239 8.875c0 .331.165.56.54.731.288.131.332.17.332.289 0 .163-.127.237-.407.237-.212 0-.409-.032-.636-.103l-.097.604c.16.034.304.066.738.078.749 0 1.094-.277 1.094-.875 0-.36-.144-.571-.5-.73-.297-.133-.332-.162-.332-.284 0-.142.119-.215.348-.215.139 0 .33.015.51.04l.1-.607a4.946 4.946 0 0 0-.624-.051c-.794 0-1.068.402-1.066.886M23.749 10.665h-.672l.034-.243a.846.846 0 0 1-.655.289c-.515 0-.856-.432-.856-1.087 0-.87.528-1.605 1.154-1.605.276 0 .484.11.678.357l.157-.93h.7l-.54 3.22zm-1.047-.605c.33 0 .563-.363.563-.882 0-.333-.133-.513-.376-.513-.322 0-.55.365-.55.88 0 .342.121.515.363.515zM20.632 8.047c-.089.81-.247 1.631-.37 2.442l-.032.176h.71c.253-1.6.315-1.913.713-1.874.063-.328.181-.615.27-.76-.298-.06-.464.104-.681.413.017-.134.048-.264.042-.397h-.652M14.79 8.047c-.089.81-.247 1.631-.37 2.442l-.032.176h.71c.253-1.6.315-1.913.713-1.874.063-.328.181-.615.269-.76-.297-.06-.463.104-.68.413.017-.134.048-.264.042-.397h-.652" fill="#FFF"/></g></svg>