<svg width="30" height="20" viewBox="0 0 30 20" xmlns="http://www.w3.org/2000/svg"><title>visa bg</title><g transform="translate(1 1)" fill="none" fill-rule="evenodd"><rect fill="#0E4595" width="28" height="18" rx="2"/><path d="M10.386 12.478l1.246-7.309h1.992l-1.247 7.309h-1.991zM19.574 5.327a5.145 5.145 0 0 0-1.785-.307c-1.969 0-3.355.991-3.367 2.412-.011 1.05.99 1.636 1.746 1.986.775.358 1.036.586 1.032.906-.005.49-.62.714-1.192.714-.797 0-1.22-.111-1.875-.384l-.257-.116-.28 1.636c.466.204 1.326.38 2.22.39 2.094 0 3.453-.98 3.469-2.497.007-.831-.524-1.464-1.673-1.986-.696-.338-1.123-.563-1.118-.906 0-.303.36-.628 1.14-.628a3.675 3.675 0 0 1 1.492.28l.178.084.27-1.584M24.7 5.17h-1.539c-.477 0-.834.13-1.043.605l-2.959 6.698h2.092s.342-.9.42-1.098l2.55.003c.06.256.243 1.095.243 1.095h1.849L24.7 5.17zm-2.442 4.719l.794-2.043c-.012.019.163-.424.264-.698l.135.63.46 2.11h-1.653zM8.695 5.17l-1.95 4.983-.208-1.013c-.363-1.167-1.494-2.432-2.759-3.065l1.783 6.391 2.108-.002 3.136-7.295h-2.11" fill="#FFF"/><path d="M4.925 5.17H1.713l-.026.151c2.5.605 4.153 2.067 4.84 3.824l-.699-3.359c-.12-.462-.47-.6-.903-.617" fill="#F2AE14"/></g></svg>